G04 MADE WITH FRITZING*
G04 WWW.FRITZING.ORG*
G04 DOUBLE SIDED*
G04 HOLES PLATED*
G04 CONTOUR ON CENTER OF CONTOUR VECTOR*
%ASAXBY*%
%FSLAX23Y23*%
%MOIN*%
%OFA0B0*%
%SFA1.0B1.0*%
%ADD10C,0.085000*%
%ADD11C,0.078583*%
%ADD12C,0.078556*%
%ADD13C,0.088000*%
%ADD14C,0.083889*%
%ADD15C,0.084000*%
%ADD16C,0.061496*%
%ADD17R,0.088000X0.088000*%
%ADD18C,0.030000*%
%ADD19R,0.001000X0.001000*%
%LNMASK1*%
G90*
G70*
G54D10*
X1190Y1310D03*
X1190Y910D03*
X1080Y890D03*
X1080Y1290D03*
G54D11*
X940Y880D03*
X940Y980D03*
X940Y780D03*
X940Y680D03*
X940Y1080D03*
X940Y1180D03*
X940Y1280D03*
X940Y1380D03*
X940Y1480D03*
X940Y1580D03*
X940Y1680D03*
X940Y1780D03*
G54D12*
X240Y980D03*
X240Y880D03*
X240Y780D03*
X240Y680D03*
X240Y1080D03*
X240Y1180D03*
X240Y1280D03*
X240Y1380D03*
X240Y1580D03*
X240Y1480D03*
X240Y1680D03*
X240Y1780D03*
G54D13*
X1140Y1790D03*
X1140Y1690D03*
X1140Y1590D03*
X80Y1100D03*
X80Y1200D03*
X80Y1300D03*
X80Y1400D03*
G54D14*
X690Y360D03*
X590Y360D03*
X490Y360D03*
X390Y360D03*
G54D15*
X1030Y340D03*
X1080Y415D03*
X1130Y340D03*
X1030Y340D03*
X1080Y415D03*
X1130Y340D03*
G54D16*
X1070Y590D03*
X1170Y590D03*
X1070Y590D03*
X1170Y590D03*
G54D17*
X1140Y1790D03*
G54D18*
G36*
X51Y1071D02*
X51Y1129D01*
X109Y1129D01*
X109Y1071D01*
X51Y1071D01*
G37*
D02*
G54D19*
X984Y191D02*
X994Y191D01*
X1084Y191D02*
X1094Y191D01*
X1184Y191D02*
X1194Y191D01*
X980Y190D02*
X998Y190D01*
X1080Y190D02*
X1098Y190D01*
X1179Y190D02*
X1198Y190D01*
X977Y189D02*
X1001Y189D01*
X1077Y189D02*
X1101Y189D01*
X1177Y189D02*
X1201Y189D01*
X974Y188D02*
X1003Y188D01*
X1074Y188D02*
X1103Y188D01*
X1174Y188D02*
X1203Y188D01*
X972Y187D02*
X1005Y187D01*
X1072Y187D02*
X1105Y187D01*
X1172Y187D02*
X1205Y187D01*
X971Y186D02*
X1007Y186D01*
X1071Y186D02*
X1107Y186D01*
X1171Y186D02*
X1207Y186D01*
X969Y185D02*
X1009Y185D01*
X1069Y185D02*
X1109Y185D01*
X1169Y185D02*
X1209Y185D01*
X968Y184D02*
X1010Y184D01*
X1068Y184D02*
X1110Y184D01*
X1168Y184D02*
X1210Y184D01*
X966Y183D02*
X1011Y183D01*
X1066Y183D02*
X1111Y183D01*
X1166Y183D02*
X1211Y183D01*
X965Y182D02*
X1013Y182D01*
X1065Y182D02*
X1113Y182D01*
X1165Y182D02*
X1213Y182D01*
X964Y181D02*
X1014Y181D01*
X1064Y181D02*
X1114Y181D01*
X1164Y181D02*
X1214Y181D01*
X963Y180D02*
X1015Y180D01*
X1063Y180D02*
X1115Y180D01*
X1163Y180D02*
X1215Y180D01*
X962Y179D02*
X1016Y179D01*
X1062Y179D02*
X1116Y179D01*
X1162Y179D02*
X1216Y179D01*
X961Y178D02*
X1017Y178D01*
X1061Y178D02*
X1117Y178D01*
X1161Y178D02*
X1217Y178D01*
X960Y177D02*
X1018Y177D01*
X1060Y177D02*
X1118Y177D01*
X1160Y177D02*
X1218Y177D01*
X959Y176D02*
X1019Y176D01*
X1059Y176D02*
X1119Y176D01*
X1159Y176D02*
X1219Y176D01*
X958Y175D02*
X1019Y175D01*
X1058Y175D02*
X1119Y175D01*
X1158Y175D02*
X1219Y175D01*
X957Y174D02*
X1020Y174D01*
X1057Y174D02*
X1120Y174D01*
X1157Y174D02*
X1220Y174D01*
X957Y173D02*
X1021Y173D01*
X1057Y173D02*
X1121Y173D01*
X1157Y173D02*
X1221Y173D01*
X956Y172D02*
X1022Y172D01*
X1056Y172D02*
X1122Y172D01*
X1156Y172D02*
X1222Y172D01*
X955Y171D02*
X1022Y171D01*
X1055Y171D02*
X1122Y171D01*
X1155Y171D02*
X1222Y171D01*
X955Y170D02*
X1023Y170D01*
X1055Y170D02*
X1123Y170D01*
X1155Y170D02*
X1223Y170D01*
X954Y169D02*
X1024Y169D01*
X1054Y169D02*
X1123Y169D01*
X1154Y169D02*
X1223Y169D01*
X954Y168D02*
X1024Y168D01*
X1054Y168D02*
X1124Y168D01*
X1154Y168D02*
X1224Y168D01*
X953Y167D02*
X1025Y167D01*
X1053Y167D02*
X1125Y167D01*
X1153Y167D02*
X1224Y167D01*
X953Y166D02*
X1025Y166D01*
X1053Y166D02*
X1125Y166D01*
X1153Y166D02*
X1225Y166D01*
X952Y165D02*
X1025Y165D01*
X1052Y165D02*
X1125Y165D01*
X1152Y165D02*
X1225Y165D01*
X952Y164D02*
X1026Y164D01*
X1052Y164D02*
X1126Y164D01*
X1152Y164D02*
X1226Y164D01*
X951Y163D02*
X1026Y163D01*
X1051Y163D02*
X1126Y163D01*
X1151Y163D02*
X1226Y163D01*
X951Y162D02*
X1027Y162D01*
X1051Y162D02*
X1127Y162D01*
X1151Y162D02*
X1227Y162D01*
X951Y161D02*
X1027Y161D01*
X1051Y161D02*
X1127Y161D01*
X1151Y161D02*
X1227Y161D01*
X951Y160D02*
X1027Y160D01*
X1051Y160D02*
X1127Y160D01*
X1150Y160D02*
X1227Y160D01*
X950Y159D02*
X1027Y159D01*
X1050Y159D02*
X1127Y159D01*
X1150Y159D02*
X1227Y159D01*
X950Y158D02*
X1028Y158D01*
X1050Y158D02*
X1128Y158D01*
X1150Y158D02*
X1228Y158D01*
X950Y157D02*
X1028Y157D01*
X1050Y157D02*
X1128Y157D01*
X1150Y157D02*
X1228Y157D01*
X950Y156D02*
X1028Y156D01*
X1050Y156D02*
X1128Y156D01*
X1150Y156D02*
X1228Y156D01*
X950Y155D02*
X1028Y155D01*
X1050Y155D02*
X1128Y155D01*
X1150Y155D02*
X1228Y155D01*
X950Y154D02*
X1028Y154D01*
X1049Y154D02*
X1128Y154D01*
X1149Y154D02*
X1228Y154D01*
X949Y153D02*
X1028Y153D01*
X1049Y153D02*
X1128Y153D01*
X1149Y153D02*
X1228Y153D01*
X949Y152D02*
X1028Y152D01*
X1049Y152D02*
X1128Y152D01*
X1149Y152D02*
X1228Y152D01*
X949Y151D02*
X1028Y151D01*
X1049Y151D02*
X1128Y151D01*
X1149Y151D02*
X1228Y151D01*
X949Y150D02*
X1028Y150D01*
X1049Y150D02*
X1128Y150D01*
X1149Y150D02*
X1228Y150D01*
X950Y149D02*
X1028Y149D01*
X1050Y149D02*
X1128Y149D01*
X1149Y149D02*
X1228Y149D01*
X950Y148D02*
X1028Y148D01*
X1050Y148D02*
X1128Y148D01*
X1150Y148D02*
X1228Y148D01*
X950Y147D02*
X1028Y147D01*
X1050Y147D02*
X1128Y147D01*
X1150Y147D02*
X1228Y147D01*
X950Y146D02*
X1028Y146D01*
X1050Y146D02*
X1128Y146D01*
X1150Y146D02*
X1228Y146D01*
X950Y145D02*
X1028Y145D01*
X1050Y145D02*
X1128Y145D01*
X1150Y145D02*
X1228Y145D01*
X950Y144D02*
X1027Y144D01*
X1050Y144D02*
X1127Y144D01*
X1150Y144D02*
X1227Y144D01*
X951Y143D02*
X1027Y143D01*
X1051Y143D02*
X1127Y143D01*
X1151Y143D02*
X1227Y143D01*
X951Y142D02*
X1027Y142D01*
X1051Y142D02*
X1127Y142D01*
X1151Y142D02*
X1227Y142D01*
X951Y141D02*
X1027Y141D01*
X1051Y141D02*
X1126Y141D01*
X1151Y141D02*
X1226Y141D01*
X952Y140D02*
X1026Y140D01*
X1052Y140D02*
X1126Y140D01*
X1151Y140D02*
X1226Y140D01*
X952Y139D02*
X1026Y139D01*
X1052Y139D02*
X1126Y139D01*
X1152Y139D02*
X1226Y139D01*
X952Y138D02*
X1025Y138D01*
X1052Y138D02*
X1125Y138D01*
X1152Y138D02*
X1225Y138D01*
X953Y137D02*
X1025Y137D01*
X1053Y137D02*
X1125Y137D01*
X1153Y137D02*
X1225Y137D01*
X953Y136D02*
X1024Y136D01*
X1053Y136D02*
X1124Y136D01*
X1153Y136D02*
X1224Y136D01*
X954Y135D02*
X1024Y135D01*
X1054Y135D02*
X1124Y135D01*
X1154Y135D02*
X1224Y135D01*
X954Y134D02*
X1023Y134D01*
X1054Y134D02*
X1123Y134D01*
X1154Y134D02*
X1223Y134D01*
X955Y133D02*
X1023Y133D01*
X1055Y133D02*
X1123Y133D01*
X1155Y133D02*
X1223Y133D01*
X956Y132D02*
X1022Y132D01*
X1056Y132D02*
X1122Y132D01*
X1155Y132D02*
X1222Y132D01*
X956Y131D02*
X1022Y131D01*
X1056Y131D02*
X1121Y131D01*
X1156Y131D02*
X1221Y131D01*
X957Y130D02*
X1021Y130D01*
X1057Y130D02*
X1121Y130D01*
X1157Y130D02*
X1221Y130D01*
X958Y129D02*
X1020Y129D01*
X1058Y129D02*
X1120Y129D01*
X1158Y129D02*
X1220Y129D01*
X958Y128D02*
X1019Y128D01*
X1058Y128D02*
X1119Y128D01*
X1158Y128D02*
X1219Y128D01*
X959Y127D02*
X1019Y127D01*
X1059Y127D02*
X1118Y127D01*
X1159Y127D02*
X1218Y127D01*
X960Y126D02*
X1018Y126D01*
X1060Y126D02*
X1118Y126D01*
X1160Y126D02*
X1218Y126D01*
X961Y125D02*
X1017Y125D01*
X1061Y125D02*
X1117Y125D01*
X1161Y125D02*
X1217Y125D01*
X962Y124D02*
X1016Y124D01*
X1062Y124D02*
X1116Y124D01*
X1162Y124D02*
X1216Y124D01*
X963Y123D02*
X1015Y123D01*
X1063Y123D02*
X1115Y123D01*
X1163Y123D02*
X1215Y123D01*
X964Y122D02*
X1014Y122D01*
X1064Y122D02*
X1114Y122D01*
X1164Y122D02*
X1214Y122D01*
X965Y121D02*
X1012Y121D01*
X1065Y121D02*
X1112Y121D01*
X1165Y121D02*
X1212Y121D01*
X967Y120D02*
X1011Y120D01*
X1067Y120D02*
X1111Y120D01*
X1167Y120D02*
X1211Y120D01*
X968Y119D02*
X1010Y119D01*
X1068Y119D02*
X1110Y119D01*
X1168Y119D02*
X1210Y119D01*
X969Y118D02*
X1008Y118D01*
X1069Y118D02*
X1108Y118D01*
X1169Y118D02*
X1208Y118D01*
X971Y117D02*
X1007Y117D01*
X1071Y117D02*
X1107Y117D01*
X1171Y117D02*
X1207Y117D01*
X973Y116D02*
X1005Y116D01*
X1073Y116D02*
X1105Y116D01*
X1173Y116D02*
X1205Y116D01*
X975Y115D02*
X1003Y115D01*
X1075Y115D02*
X1103Y115D01*
X1175Y115D02*
X1203Y115D01*
X977Y114D02*
X1000Y114D01*
X1077Y114D02*
X1100Y114D01*
X1177Y114D02*
X1200Y114D01*
X980Y113D02*
X997Y113D01*
X1080Y113D02*
X1097Y113D01*
X1180Y113D02*
X1197Y113D01*
X985Y112D02*
X993Y112D01*
X1085Y112D02*
X1093Y112D01*
X1185Y112D02*
X1193Y112D01*
D02*
G04 End of Mask1*
M02*