; NON-PLATED HOLES START AT T1
; THROUGH (PLATED) HOLES START AT T100
M48
INCH
T100C0.032000
T101C0.046111
T102C0.035250
T103C0.031496
T104C0.030000
T105C0.035000
T106C0.035222
T107C0.038000
%
T100
X011298Y003401
X010298Y003401
X010798Y004151
T101
X005898Y003601
X004898Y003601
X003898Y003601
X006897Y003601
T102
X009398Y008801
X009398Y012801
X009398Y009801
X009398Y013801
X009398Y014801
X009398Y015801
X009398Y006801
X009398Y016801
X009398Y010801
X009398Y007801
X009398Y017801
X009398Y011801
T103
X011698Y005901
X010698Y005901
T104
X011898Y001501
X010898Y001501
X009897Y001501
T105
X010798Y008901
X011898Y009101
X010798Y012901
X011898Y013101
T106
X002398Y017801
X002398Y011801
X002398Y008801
X002398Y012801
X002398Y009801
X002398Y013801
X002398Y014801
X002398Y015801
X002398Y006801
X002398Y016801
X002398Y010801
X002398Y007801
T107
X000798Y013001
X000798Y011001
X011398Y017901
X011398Y015901
X000798Y014001
X000798Y012001
X011398Y016901
T00
M30
